<svg version="1.1" xmlns="http://www.w3.org/2000/svg" xmlns:xlink="http://www.w3.org/1999/xlink" width="40" height="40" viewBox="0,0,256,256"><g fill="none" fill-rule="nonzero" stroke="none" stroke-width="1" stroke-linecap="butt" stroke-linejoin="miter" stroke-miterlimit="10" stroke-dasharray="" stroke-dashoffset="0" font-family="none" font-weight="none" font-size="none" text-anchor="none" style="mix-blend-mode: normal"><g><g><g transform="scale(6.4,6.4)"><circle cx="20" cy="20" r="20" fill="#795b4d" stroke="none"></circle><path d="M9,10c-0.55228,0 -1,0.4477 -1,1c0,0.5523 0.44772,1 1,1zM11.2222,11l0.9804,-0.1971c-0.0939,-0.467 -0.5041,-0.8029 -0.9804,-0.8029zM10.6863,13.4076c0.1089,0.5415 0.636,0.8921 1.1775,0.7833c0.5414,-0.1089 0.8921,-0.6361 0.7832,-1.1775zM13.4444,21.0525c-0.5522,0 -1,0.4477 -1,1c0,0.5523 0.4478,1 1,1zM24.5556,22.0525v1c0.378,0 0.7237,-0.2131 0.8934,-0.5509zM29,13.2105l0.8935,0.4491c0.1558,-0.31 0.1398,-0.6786 -0.0423,-0.9739c-0.1821,-0.2954 -0.5042,-0.4752 -0.8512,-0.4752zM11.6667,12.2105c-0.5523,0 -1,0.4477 -1,1c0,0.5523 0.4477,1 1,1zM12.4641,22.2496c0.1088,0.5415 0.636,0.8922 1.1775,0.7833c0.5414,-0.1089 0.8921,-0.636 0.7832,-1.1775zM12.647,13.0134c-0.1088,-0.5415 -0.636,-0.8921 -1.1774,-0.7833c-0.5415,0.1089 -0.8922,0.6361 -0.7833,1.1775zM14.1497,22.7615c0.3915,-0.3895 0.3932,-1.0227 0.0037,-1.4142c-0.3895,-0.3916 -1.0226,-0.3932 -1.4142,-0.0037zM10.8967,24.5869l-0.7053,-0.709zM24.5556,27.4735c0.5522,0 1,-0.4477 1,-1c0,-0.5522 -0.4478,-1 -1,-1zM24.5556,26.4735h-1c0,0.2662 0.106,0.5213 0.2947,0.709zM26.7778,28.684l-0.7053,0.709c0.1874,0.1864 0.441,0.291 0.7053,0.291zM15.6667,28.684l-0.8649,-0.5019c-0.0885,0.1524 -0.1351,0.3256 -0.1351,0.5019zM15.6667,30.8945h-1c0,0.1764 0.0466,0.3495 0.1351,0.502zM9,12h2.2222v-2h-2.2222zM10.2418,11.1971l0.4445,2.2105l1.9607,-0.3942l-0.4444,-2.2105zM13.4444,23.0525h11.1112v-2h-11.1112zM25.449,22.5016l4.4445,-8.842l-1.787,-0.8982l-4.4444,8.842zM29,12.2105h-17.3333v2h17.3333zM14.4248,21.8554l-1.7778,-8.842l-1.9607,0.3942l1.7778,8.842zM12.7392,21.3436l-2.5478,2.5343l1.4105,1.4179l2.5478,-2.5343zM10.1914,23.8779c-1.34028,1.3332 -0.38037,3.5956 1.4908,3.5956v-2c-0.0401,0 -0.0567,-0.01 -0.0649,-0.0157c-0.0126,-0.0089 -0.0279,-0.0256 -0.0384,-0.0508c-0.0105,-0.0253 -0.0111,-0.0468 -0.0089,-0.0599c0.0014,-0.0076 0.0048,-0.0243 0.0319,-0.0513zM11.6822,27.4735h12.8734v-2h-12.8734zM25.5556,26.4735c0,-0.6635 0.5422,-1.2105 1.2222,-1.2105v-2c-1.7746,0 -3.2222,1.4324 -3.2222,3.2105zM26.7778,25.263c0.68,0 1.2222,0.547 1.2222,1.2105h2c0,-1.7781 -1.4476,-3.2105 -3.2222,-3.2105zM28,26.4735c0,0.6636 -0.5422,1.2105 -1.2222,1.2105v2c1.7746,0 3.2222,-1.4324 3.2222,-3.2105zM27.483,27.9751l-2.2222,-2.2105l-1.4105,1.4179l2.2222,2.2105zM16.5315,29.186c0.2753,-0.4741 0.8396,-0.7089 1.3773,-0.5656l0.5151,-1.9326c-1.4054,-0.3745 -2.8915,0.2355 -3.6221,1.4943zM17.9088,28.6204c0.5368,0.1431 0.9046,0.6247 0.9046,1.1689h2c0,-1.4568 -0.9833,-2.7266 -2.3895,-3.1015zM18.8134,29.7893c0,0.5442 -0.3678,1.0258 -0.9046,1.1689l0.5151,1.9325c1.4062,-0.3748 2.3895,-1.6446 2.3895,-3.1014zM17.9088,30.9582c-0.5377,0.1433 -1.102,-0.0915 -1.3773,-0.5656l-1.7297,1.0039c0.7306,1.2588 2.2167,1.8688 3.6221,1.4942zM16.6667,30.8945v-2.2105h-2v2.2105z" fill="#ffffff" stroke="none"></path><circle cx="29" cy="13" r="6" fill="#ffffff" stroke="none"></circle><path d="M31.5263,12.5263h-2.0526v-2.0526c0,-0.259 -0.2084,-0.4737 -0.4737,-0.4737c-0.2589,0 -0.4737,0.2084 -0.4737,0.4737v2.0526h-2.0526c-0.259,0 -0.4737,0.2084 -0.4737,0.4737c0,0.1326 0.0505,0.2463 0.1389,0.3347c0.0885,0.0885 0.2022,0.139 0.3348,0.139h2.0526v2.0526c0,0.1326 0.0505,0.2463 0.139,0.3348c0.0884,0.0884 0.2021,0.1389 0.3347,0.1389c0.2589,0 0.4737,-0.2084 0.4737,-0.4737v-2.0526h2.0526c0.259,0 0.4737,-0.2084 0.4737,-0.4737c0,-0.2589 -0.2084,-0.4737 -0.4737,-0.4737z" fill="#acd9b2" stroke="#795b4d"></path></g></g></g></g></svg>