<svg version="1.1" xmlns="http://www.w3.org/2000/svg" xmlns:xlink="http://www.w3.org/1999/xlink" width="30" height="27" viewBox="0,0,256,230.39063"><g fill="none" fill-rule="nonzero" stroke="none" stroke-width="1" stroke-linecap="butt" stroke-linejoin="miter" stroke-miterlimit="10" stroke-dasharray="" stroke-dashoffset="0" font-family="none" font-weight="none" font-size="none" text-anchor="none" style="mix-blend-mode: normal"><g transform="translate(0.00005,-0.00464) scale(1,1.00004)"><g><g transform="translate(-6.4,8.52855) scale(8.53333,8.53333)"><path d="M4,2c-0.55228,0 -1,0.44772 -1,1c0,0.55228 0.44772,1 1,1zM6.22222,3l0.98038,-0.19712c-0.09388,-0.46695 -0.50408,-0.80288 -0.98038,-0.80288zM5.68629,5.40762c0.10886,0.54145 0.63604,0.89213 1.17749,0.78327c0.54145,-0.10887 0.89213,-0.63605 0.78327,-1.1775zM8.44444,13.0525c-0.55228,0 -1,0.4477 -1,1c0,0.5523 0.44772,1 1,1zM19.5556,14.0525v1c0.378,0 0.7237,-0.2131 0.8934,-0.5509zM24,5.21051l0.8935,0.4491c0.1558,-0.30999 0.1398,-0.6786 -0.0423,-0.97393c-0.1821,-0.29533 -0.5042,-0.47517 -0.8512,-0.47517zM6.66667,4.21051c-0.55229,0 -1,0.44771 -1,1c0,0.55228 0.44771,1 1,1zM7.46406,14.2496c0.10887,0.5415 0.63605,0.8922 1.1775,0.7833c0.54145,-0.1089 0.89213,-0.636 0.78326,-1.1775zM7.64705,5.01339c-0.10887,-0.54145 -0.63605,-0.89213 -1.1775,-0.78327c-0.54145,0.10887 -0.89213,0.63605 -0.78326,1.1775zM9.14968,14.7615c0.39155,-0.3895 0.39323,-1.0227 0.00374,-1.4142c-0.38949,-0.3916 -1.02266,-0.3932 -1.41421,-0.0037zM5.89667,16.5869l-0.70524,-0.709zM19.5556,19.4735c0.5522,0 1,-0.4477 1,-1c0,-0.5522 -0.4478,-1 -1,-1zM19.5556,18.4735h-1c0,0.2662 0.106,0.5213 0.2947,0.709zM21.7778,20.684l-0.7053,0.709c0.1874,0.1864 0.441,0.291 0.7053,0.291zM10.6667,20.684l-0.86491,-0.5019c-0.08851,0.1524 -0.13512,0.3256 -0.13512,0.5019zM10.6667,22.8945h-1.00003c0,0.1764 0.04661,0.3495 0.13512,0.502zM4,4h2.22222v-2h-2.22222zM5.24184,3.19712l0.44445,2.2105l1.96076,-0.39423l-0.44445,-2.21051zM8.44444,15.0525h11.11116v-2h-11.11116zM20.449,14.5016l4.4445,-8.84199l-1.787,-0.89821l-4.4444,8.842zM24,4.21051h-17.33333v2h17.33333zM9.42482,13.8554l-1.77777,-8.84201l-1.96076,0.39423l1.77777,8.84198zM7.73921,13.3436l-2.54778,2.5343l1.41047,1.4179l2.54778,-2.5343zM5.19143,15.8779c-1.34031,1.3332 -0.3804,3.5956 1.49079,3.5956v-2c-0.04014,0 -0.05669,-0.01 -0.06488,-0.0157c-0.01261,-0.0089 -0.02796,-0.0256 -0.03846,-0.0508c-0.01051,-0.0253 -0.01113,-0.0468 -0.00885,-0.0599c0.00133,-0.0076 0.0048,-0.0243 0.03187,-0.0513zM6.68222,19.4735h12.87338v-2h-12.87338zM20.5556,18.4735c0,-0.6635 0.5422,-1.2105 1.2222,-1.2105v-2c-1.7746,0 -3.2222,1.4324 -3.2222,3.2105zM21.7778,17.263c0.68,0 1.2222,0.547 1.2222,1.2105h2c0,-1.7781 -1.4476,-3.2105 -3.2222,-3.2105zM23,18.4735c0,0.6636 -0.5422,1.2105 -1.2222,1.2105v2c1.7746,0 3.2222,-1.4324 3.2222,-3.2105zM22.483,19.9751l-2.2222,-2.2105l-1.4105,1.4179l2.2222,2.2105zM11.5315,21.186c0.2753,-0.4741 0.8396,-0.7089 1.3773,-0.5656l0.5151,-1.9326c-1.4054,-0.3745 -2.8915,0.2355 -3.62211,1.4943zM12.9088,20.6204c0.5368,0.1431 0.9046,0.6247 0.9046,1.1689h2c0,-1.4568 -0.9833,-2.7266 -2.3895,-3.1015zM13.8134,21.7893c0,0.5442 -0.3678,1.0258 -0.9046,1.1689l0.5151,1.9325c1.4062,-0.3748 2.3895,-1.6446 2.3895,-3.1014zM12.9088,22.9582c-0.5377,0.1433 -1.102,-0.0915 -1.3773,-0.5656l-1.72971,1.0039c0.73061,1.2588 2.21671,1.8688 3.62211,1.4942zM11.6667,22.8945v-2.2105h-2.00003v2.2105z" fill="#000000"></path><circle cx="23.5" cy="5" r="5" fill="#795b4d"></circle></g></g></g></g></svg>