<svg version="1.1" xmlns="http://www.w3.org/2000/svg" xmlns:xlink="http://www.w3.org/1999/xlink" width="48" height="48" viewBox="0,0,256,256"><g fill="none" fill-rule="none" stroke="none" stroke-width="none" stroke-linecap="butt" stroke-linejoin="miter" stroke-miterlimit="10" stroke-dasharray="" stroke-dashoffset="0" font-family="none" font-weight="none" font-size="none" text-anchor="none" style="mix-blend-mode: normal"><g transform="translate(0.00008,0.00008)"><g><g transform="scale(5.33333,5.33333)"><g fill="#ffffff" fill-rule="nonzero" stroke="none" stroke-width="1"><circle cx="24" cy="24" r="20"></circle></g><path d="M13,14c-0.5523,0 -1,0.4477 -1,1c0,0.5523 0.4477,1 1,1zM15.2222,15l0.9804,-0.1971c-0.0939,-0.467 -0.5041,-0.8029 -0.9804,-0.8029zM14.6863,17.4076c0.1089,0.5415 0.636,0.8921 1.1775,0.7833c0.5414,-0.1089 0.8921,-0.6361 0.7832,-1.1775zM17.4444,25.0525c-0.5522,0 -1,0.4477 -1,1c0,0.5523 0.4478,1 1,1zM28.5556,26.0525v1c0.378,0 0.7237,-0.2131 0.8934,-0.5509zM33,17.2105l0.8935,0.4491c0.1558,-0.31 0.1398,-0.6786 -0.0423,-0.9739c-0.1821,-0.2954 -0.5042,-0.4752 -0.8512,-0.4752zM15.6667,16.2105c-0.5523,0 -1,0.4477 -1,1c0,0.5523 0.4477,1 1,1zM16.4641,26.2496c0.1088,0.5415 0.636,0.8922 1.1775,0.7833c0.5414,-0.1089 0.8921,-0.636 0.7832,-1.1775zM16.647,17.0134c-0.1088,-0.5415 -0.636,-0.8921 -1.1774,-0.7833c-0.5415,0.1089 -0.8922,0.6361 -0.7833,1.1775zM18.1497,26.7615c0.3915,-0.3895 0.3932,-1.0227 0.0037,-1.4142c-0.3895,-0.3916 -1.0226,-0.3932 -1.4142,-0.0037zM14.8967,28.5869l-0.7053,-0.709zM28.5556,31.4735c0.5522,0 1,-0.4477 1,-1c0,-0.5522 -0.4478,-1 -1,-1zM28.5556,30.4735h-1c0,0.2662 0.106,0.5213 0.2947,0.709zM30.7778,32.684l-0.7053,0.709c0.1874,0.1864 0.441,0.291 0.7053,0.291zM19.6667,32.684l-0.8649,-0.5019c-0.0885,0.1524 -0.1351,0.3256 -0.1351,0.5019zM19.6667,34.8945h-1c0,0.1764 0.0466,0.3495 0.1351,0.502zM13,16h2.2222v-2h-2.2222zM14.2418,15.1971l0.4445,2.2105l1.9607,-0.3942l-0.4444,-2.2105zM17.4444,27.0525h11.1112v-2h-11.1112zM29.449,26.5016l4.4445,-8.842l-1.787,-0.8982l-4.4444,8.842zM33,16.2105h-17.3333v2h17.3333zM18.4248,25.8554l-1.7778,-8.842l-1.9607,0.3942l1.7778,8.842zM16.7392,25.3436l-2.5478,2.5343l1.4105,1.4179l2.5478,-2.5343zM14.1914,27.8779c-1.3403,1.3332 -0.3804,3.5956 1.4908,3.5956v-2c-0.0401,0 -0.0567,-0.01 -0.0649,-0.0157c-0.0126,-0.0089 -0.0279,-0.0256 -0.0384,-0.0508c-0.0105,-0.0253 -0.0111,-0.0468 -0.0089,-0.0599c0.0014,-0.0076 0.0048,-0.0243 0.0319,-0.0513zM15.6822,31.4735h12.8734v-2h-12.8734zM29.5556,30.4735c0,-0.6635 0.5422,-1.2105 1.2222,-1.2105v-2c-1.7746,0 -3.2222,1.4324 -3.2222,3.2105zM30.7778,29.263c0.68,0 1.2222,0.547 1.2222,1.2105h2c0,-1.7781 -1.4476,-3.2105 -3.2222,-3.2105zM32,30.4735c0,0.6636 -0.5422,1.2105 -1.2222,1.2105v2c1.7746,0 3.2222,-1.4324 3.2222,-3.2105zM31.483,31.9751l-2.2222,-2.2105l-1.4105,1.4179l2.2222,2.2105zM20.5315,33.186c0.2753,-0.4741 0.8396,-0.7089 1.3773,-0.5656l0.5151,-1.9326c-1.4054,-0.3745 -2.8915,0.2355 -3.6221,1.4943zM21.9088,32.6204c0.5368,0.1431 0.9046,0.6247 0.9046,1.1689h2c0,-1.4568 -0.9833,-2.7266 -2.3895,-3.1015zM22.8134,33.7893c0,0.5442 -0.3678,1.0258 -0.9046,1.1689l0.5151,1.9325c1.4062,-0.3748 2.3895,-1.6446 2.3895,-3.1014zM21.9088,34.9582c-0.5377,0.1433 -1.102,-0.0915 -1.3773,-0.5656l-1.7297,1.0039c0.7306,1.2588 2.2167,1.8688 3.6221,1.4942zM20.6667,34.8945v-2.2105h-2v2.2105z" fill="#c7c7c7" fill-rule="nonzero" stroke="none" stroke-width="1"></path><circle cx="32" cy="16" r="6" fill="#795b4d" fill-rule="nonzero" stroke="none" stroke-width="1"></circle><path d="M34.5228,14.2423c-0.2351,-0.2103 -0.5967,-0.1909 -0.8071,0.0449l-2.5976,2.9033l-1.1395,-1.155c-0.2217,-0.2248 -0.5837,-0.2272 -0.8085,-0.0053c-0.2246,0.2218 -0.2272,0.5838 -0.0053,0.8086l1.5668,1.5878c0.1075,0.109 0.2542,0.17 0.4071,0.17c0.0045,0 0.0091,0 0.0141,0c0.1577,-0.0038 0.3068,-0.0728 0.4118,-0.1906l3.0032,-3.3568c0.2104,-0.235 0.1901,-0.5967 -0.045,-0.8069z" fill="#ffffff" fill-rule="evenodd" stroke="#ffffff" stroke-width="0.8"></path></g></g></g></g></svg>