<svg version="1.1" xmlns="http://www.w3.org/2000/svg" xmlns:xlink="http://www.w3.org/1999/xlink" width="90" height="58" viewBox="0,0,256,164.96875"><g fill="#795b4d" fill-rule="evenodd" stroke="none" stroke-width="1" stroke-linecap="butt" stroke-linejoin="miter" stroke-miterlimit="10" stroke-dasharray="" stroke-dashoffset="0" font-family="none" font-weight="none" font-size="none" text-anchor="none" style="mix-blend-mode: normal"><g transform="translate(0.0002,-0.00439) scale(1,1.00005)"><g><g transform="translate(0,0.26571) scale(2.84444,2.84444)"><path d="M85.466,0h-40.409h-0.115h-40.408c-2.5,0 -4.534,2.034 -4.534,4.534v48.742c0,2.5 2.034,4.534 4.534,4.534h37.229h3.233h40.47c2.5,0 4.534,-2.034 4.534,-4.534v-48.742c0,-2.5 -2.034,-4.534 -4.534,-4.534zM44.946,3.4h0.107h38.708l-38.762,30.033l-38.761,-30.033zM85.466,54.409c0.624,0 1.134,-0.508 1.134,-1.133v-47.472l-30.405,23.557l21.077,16.357l-0.016,0.014c0.334,0.336 0.54,0.798 0.54,1.309c0,1.028 -0.832,1.86 -1.859,1.86c-0.51,0 -0.973,-0.206 -1.309,-0.539l-0.002,0.002l-21.406,-16.698l-6.419,4.973c-0.48,0.424 -1.106,0.692 -1.802,0.692c-0.695,0 -1.322,-0.267 -1.803,-0.692l-6.417,-4.972l-21.406,16.697l-0.002,-0.002c-0.336,0.333 -0.798,0.539 -1.309,0.539c-1.026,0 -1.859,-0.832 -1.859,-1.86c0,-0.511 0.207,-0.973 0.54,-1.309l-0.014,-0.014l21.075,-16.357l-30.404,-23.557v47.472c0,0.625 0.509,1.133 1.134,1.133h37.37h5.722z"></path></g></g></g></g></svg>