<svg version="1.1" xmlns="http://www.w3.org/2000/svg" xmlns:xlink="http://www.w3.org/1999/xlink" width="16" height="16" viewBox="0,0,256,256"><g fill="none" fill-rule="none" stroke="none" stroke-width="1" stroke-linecap="butt" stroke-linejoin="miter" stroke-miterlimit="10" stroke-dasharray="" stroke-dashoffset="0" font-family="none" font-weight="none" font-size="none" text-anchor="none" style="mix-blend-mode: normal"><g transform="translate(0.00006,0) scale(16,16)"><path d="M3.69229,8.74291v6.65239c0,0.334 -0.27544,0.6047 -0.61543,0.6047h-2.46143c-0.33999,0 -0.61543,-0.2707 -0.61543,-0.6047v-12.09521c0,-0.25051 0.15714,-0.47505 0.39522,-0.5646c0,0 5.35353,-2.01631 6.94403,-2.61531c0.42535,-0.16024 0.89604,-0.16024 1.3214,0c1.59045,0.599 6.94415,2.61531 6.94415,2.61531c0.3171,0.11945 0.4759,0.46939 0.3543,0.78101c-0.1215,0.31176 -0.4776,0.46779 -0.7947,0.34834c0,0 -5.35368,-2.01631 -6.94417,-2.61531c-0.14178,-0.05342 -0.29863,-0.05342 -0.44042,0l-6.54909,2.46654v11.07443h1.23086v-9.07133c0,-0.33397 0.27544,-0.60481 0.61528,-0.60481h9.84614c0.3399,0 0.6155,0.27084 0.6155,0.60481v9.07133h1.2307v-9.07133c0,-0.33383 0.2757,-0.60481 0.6154,-0.60481c0.3396,0 0.6153,0.27098 0.6153,0.60481v9.67613c0,0.334 -0.2755,0.6047 -0.6153,0.6047h-2.4616c-0.3398,0 -0.6154,-0.2707 -0.6154,-0.6047v-6.65239zM12.3076,7.53344v-1.20947h-8.61531v1.20947z" fill="#000000" fill-rule="evenodd"></path><path d="M6.59635,14.9c0.18271,0 0.37283,-0.0202 0.57037,-0.0607c0.19753,-0.0405 0.38271,-0.1155 0.55555,-0.225c0.17284,-0.1095 0.31235,-0.2643 0.41852,-0.4643c0.10617,-0.2 0.15926,-0.4571 0.15926,-0.7714c0,-0.2857 -0.0605,-0.5203 -0.18148,-0.7036c-0.12099,-0.1833 -0.27408,-0.3262 -0.45926,-0.4286c-0.0463,-0.0256 -0.09298,-0.0492 -0.14005,-0.071l-0.11304,-0.0468l0.05227,-0.0246c0.13607,-0.0704 0.24801,-0.1577 0.3358,-0.2619l0.06131,-0.0814c0.11358,-0.169 0.17037,-0.3655 0.17037,-0.5893c0,-0.419 -0.11604,-0.7357 -0.34814,-0.95c-0.2321,-0.2143 -0.58519,-0.3214 -1.05926,-0.3214h-1.86667c-0.12839,0 -0.2358,0.04167 -0.32222,0.125c-0.08642,0.0833 -0.12963,0.1869 -0.12963,0.3107v4.1286c0,0.1238 0.04321,0.2274 0.12963,0.3107c0.08642,0.0833 0.19383,0.125 0.32222,0.125zM5.26301,10.7429h1.22222c0.17284,0 0.31235,0.0464 0.41852,0.1392c0.10618,0.0929 0.15926,0.2417 0.15926,0.4465c0,0.1714 -0.05679,0.3024 -0.17037,0.3928c-0.11358,0.0905 -0.24197,0.1357 -0.38518,0.1357h-1.24445zM6.54449,12.7h-1.28148v1.3786h1.33334c0.22716,0 0.4074,-0.0584 0.54074,-0.175c0.13333,-0.1167 0.2,-0.2917 0.2,-0.525c0,-0.2143 -0.04445,-0.3691 -0.13334,-0.4643c-0.08889,-0.0953 -0.19506,-0.1548 -0.31852,-0.1786c-0.12345,-0.0238 -0.23703,-0.0357 -0.34074,-0.0357z" fill="#795b4d" fill-rule="evenodd"></path><path d="M9.22287,14.9c0.11185,0 0.20917,-0.0417 0.29194,-0.125c0.08278,-0.0833 0.12417,-0.1869 0.12417,-0.3107v-1.6643h1.44962c0.0931,0 0.174,-0.0259 0.2427,-0.0777l0.0493,-0.0437c0.0783,-0.081 0.1174,-0.1738 0.1174,-0.2786c0,-0.1238 -0.0391,-0.225 -0.1174,-0.3036c-0.0783,-0.0785 -0.1756,-0.1178 -0.292,-0.1178h-1.44962v-1.2572h1.75172c0.093,0 0.1739,-0.0259 0.2426,-0.0777l0.0493,-0.0437c0.0783,-0.081 0.1174,-0.1738 0.1174,-0.2786c0,-0.1238 -0.0391,-0.225 -0.1174,-0.3035c-0.0783,-0.07861 -0.1756,-0.1179 -0.2919,-0.1179h-2.18126c-0.11633,0 -0.21364,0.04167 -0.29194,0.125c-0.0783,0.0833 -0.11745,0.1869 -0.11745,0.3107v4.1286c0,0.1238 0.03915,0.2274 0.11745,0.3107c0.0783,0.0833 0.18009,0.125 0.30537,0.125z" fill="#000000" fill-rule="nonzero"></path></g></g></svg>