<svg version="1.1" xmlns="http://www.w3.org/2000/svg" xmlns:xlink="http://www.w3.org/1999/xlink" width="96" height="17" viewBox="0,0,256,45.32813"><g fill="none" fill-rule="evenodd" stroke="none" stroke-width="1" stroke-linecap="butt" stroke-linejoin="miter" stroke-miterlimit="10" stroke-dasharray="" stroke-dashoffset="0" font-family="none" font-weight="none" font-size="none" text-anchor="none" style="mix-blend-mode: normal"><g transform="translate(-0.00016,-0.00263) scale(1,1.00011)"><g><g transform="translate(0,-1.33594) scale(2.66667,2.66667)"><path d="M3.69229,9.74291v6.65239c0,0.334 -0.27544,0.6047 -0.61543,0.6047h-2.46143c-0.33999,0 -0.61543,-0.2707 -0.61543,-0.6047v-12.09521c0,-0.25051 0.15714,-0.47505 0.39522,-0.5646c0,0 5.35353,-2.01631 6.94403,-2.61531c0.42535,-0.16024 0.89604,-0.16024 1.3214,0c1.59045,0.599 6.94415,2.61531 6.94415,2.61531c0.3171,0.11945 0.4759,0.46939 0.3543,0.78101c-0.1215,0.31176 -0.4776,0.46779 -0.7947,0.34834c0,0 -5.35368,-2.01631 -6.94417,-2.61531c-0.14178,-0.05342 -0.29863,-0.05342 -0.44042,0l-6.54909,2.46654v11.07443h1.23086v-9.07133c0,-0.33397 0.27544,-0.60481 0.61528,-0.60481h9.84614c0.3399,0 0.6155,0.27084 0.6155,0.60481v9.07133h1.2307v-9.07133c0,-0.33383 0.2757,-0.60481 0.6154,-0.60481c0.3396,0 0.6153,0.27098 0.6153,0.60481v9.67613c0,0.334 -0.2755,0.6047 -0.6153,0.6047h-2.4616c-0.3398,0 -0.6154,-0.2707 -0.6154,-0.6047v-6.65239zM12.3076,8.53344v-1.20947h-8.61531v1.20947z" fill="#000000"></path><path d="M25.8052,15.6873c-0.4689,0.0958 -0.9203,0.1437 -1.354,0.1437h-4.3785c-0.3048,0 -0.5598,-0.0986 -0.765,-0.2958c-0.2051,-0.1972 -0.3077,-0.4422 -0.3077,-0.7352v-9.76901c0,-0.29296 0.1026,-0.53803 0.3077,-0.73522c0.2052,-0.19718 0.4602,-0.29577 0.765,-0.29577h4.4312c1.1254,0 1.9636,0.25352 2.5146,0.76056c0.551,0.50705 0.8265,1.25634 0.8265,2.24789c0,0.52958 -0.1348,0.99437 -0.4045,1.39437l-0.1455,0.19248c-0.2084,0.24664 -0.4742,0.45321 -0.7972,0.61972l-0.1241,0.05822l0.2684,0.11091c0.1117,0.05141 0.2225,0.1074 0.3324,0.16796c0.4397,0.24226 0.8031,0.58029 1.0903,1.01409c0.2872,0.4338 0.4308,0.9887 0.4308,1.6648c0,0.7436 -0.126,1.3521 -0.3781,1.8253c-0.252,0.4733 -0.5832,0.8395 -0.9935,1.0986c-0.4103,0.2592 -0.8499,0.4366 -1.3188,0.5324zM24.1874,5.99437h-2.9014v2.63662h2.9542c0.3399,0 0.6447,-0.10705 0.9144,-0.32113c0.2696,-0.21409 0.4044,-0.52394 0.4044,-0.92958c0,-0.48451 -0.126,-0.83662 -0.3781,-1.05634c-0.252,-0.21971 -0.5832,-0.32957 -0.9935,-0.32957zM21.286,10.6254h3.0421c0.2462,0 0.5158,0.0281 0.8089,0.0845c0.293,0.0563 0.5451,0.1971 0.7561,0.4225c0.211,0.2253 0.3165,0.5915 0.3165,1.0986c0,0.5521 -0.1582,0.9662 -0.4748,1.2422c-0.3165,0.2761 -0.7444,0.4141 -1.2836,0.4141h-3.1652zM37.0153,15.4085c-0.721,0.3943 -1.5269,0.5915 -2.4179,0.5915c-0.8909,0 -1.6969,-0.1972 -2.4179,-0.5915c-0.7209,-0.3944 -1.2953,-0.9437 -1.7232,-1.6479c-0.4279,-0.7043 -0.6419,-1.5183 -0.6419,-2.4423c0,-0.9239 0.214,-1.73802 0.6419,-2.44224c0.4279,-0.70423 1.0023,-1.25634 1.7232,-1.65634c0.721,-0.4 1.527,-0.6 2.4179,-0.6c0.891,0 1.6969,0.2 2.4179,0.6c0.7209,0.4 1.2954,0.95211 1.7232,1.65634c0.4279,0.70422 0.6419,1.51834 0.6419,2.44224c0,0.924 -0.214,1.738 -0.6419,2.4423c-0.4278,0.7042 -1.0023,1.2535 -1.7232,1.6479zM34.5974,14.1408c-0.4924,0 -0.9408,-0.1183 -1.3452,-0.3549c-0.4044,-0.2366 -0.7268,-0.5662 -0.9671,-0.9887c-0.2404,-0.4226 -0.3605,-0.9155 -0.3605,-1.4789c0,-0.5746 0.1201,-1.0732 0.3605,-1.49576c0.2403,-0.42254 0.5627,-0.75212 0.9671,-0.98874c0.4044,-0.23662 0.8528,-0.35493 1.3452,-0.35493c0.4924,0 0.9408,0.11831 1.3452,0.35493c0.4045,0.23662 0.7268,0.5662 0.9672,0.98874c0.2403,0.42256 0.3604,0.92116 0.3604,1.49576c0,0.5634 -0.1201,1.0563 -0.3604,1.4789c-0.2404,0.4225 -0.5627,0.7521 -0.9672,0.9887c-0.4044,0.2366 -0.8528,0.3549 -1.3452,0.3549zM45.7899,15.5268c-0.3575,0.2028 -0.7415,0.3042 -1.1518,0.3042c-0.2462,0 -0.5187,-0.0197 -0.8176,-0.0592c-0.299,-0.0394 -0.5803,-0.1352 -0.8441,-0.2873c-0.2638,-0.1521 -0.4836,-0.3859 -0.6594,-0.7014l-0.0806,-0.1676c-0.1221,-0.2958 -0.1832,-0.6737 -0.1832,-1.1338v-4.6648h-0.8089c-0.2813,0 -0.5158,-0.09014 -0.7033,-0.27042c-0.1876,-0.18028 -0.2814,-0.40564 -0.2814,-0.67606c0,-0.25915 0.0938,-0.47605 0.2814,-0.6507l0.1181,-0.09431c0.1651,-0.11178 0.3601,-0.16766 0.5852,-0.16766h0.8089v-1.08169c0,-0.29296 0.1026,-0.53803 0.3077,-0.73521c0.2052,-0.19719 0.4602,-0.29578 0.765,-0.29578c0.3048,0 0.5539,0.09859 0.7473,0.29578l0.1045,0.12405c0.1238,0.17307 0.1856,0.37679 0.1856,0.61116v1.08169h1.2485c0.2814,0 0.5159,0.09014 0.7034,0.27042c0.1876,0.18028 0.2814,0.40563 0.2814,0.67606c0,0.25915 -0.0938,0.47605 -0.2814,0.6507l-0.1181,0.09431c-0.1651,0.11177 -0.3602,0.16766 -0.5853,0.16766h-1.2485v4.5803c0,0.1577 0.0323,0.2873 0.0968,0.3887c0.0644,0.1014 0.1524,0.1747 0.2637,0.2197c0.1114,0.0451 0.2316,0.0676 0.3605,0.0676c0.1407,0 0.2696,-0.0253 0.3869,-0.076c0.1172,-0.0507 0.252,-0.0761 0.4044,-0.0761c0.1641,0 0.3136,0.0733 0.4484,0.2197c0.1348,0.1465 0.2022,0.3493 0.2022,0.6085c0,0.3155 -0.1787,0.5746 -0.5363,0.7775zM52.1291,16c0.4455,0 0.8587,-0.0704 1.2397,-0.2113c0.381,-0.1408 0.7122,-0.3126 0.9935,-0.5155c0.1407,-0.1014 0.2667,-0.2035 0.3781,-0.3063l0.1509,-0.15l0.0105,0.1531c0.0239,0.1643 0.0837,0.3114 0.1794,0.4412l0.1076,0.124c0.1993,0.1972 0.4513,0.2958 0.7561,0.2958c0.3048,0 0.5569,-0.0986 0.7562,-0.2958c0.1993,-0.1972 0.2989,-0.4422 0.2989,-0.7352v-7.1493c0,-0.30422 -0.0996,-0.55211 -0.2989,-0.74366c-0.1993,-0.19155 -0.4514,-0.28732 -0.7562,-0.28732c-0.3048,0 -0.5568,0.09859 -0.7561,0.29577c-0.1993,0.19719 -0.2989,0.44226 -0.2989,0.73521v0.02536l-0.1231,-0.10933l-0.2198,-0.16955c-0.3107,-0.22535 -0.677,-0.41126 -1.0991,-0.55774c-0.422,-0.14648 -0.885,-0.21972 -1.3891,-0.21972c-0.7855,0 -1.5006,0.2 -2.1453,0.6c-0.6448,0.4 -1.1577,0.95211 -1.5387,1.65634c-0.381,0.70422 -0.5715,1.51834 -0.5715,2.44224c0,0.9127 0.1905,1.7211 0.5715,2.4254c0.381,0.7042 0.8998,1.2563 1.5562,1.6563c0.6565,0.4 1.3892,0.6 2.1981,0.6zM51.0565,13.769c0.3868,0.2479 0.8323,0.3718 1.3364,0.3718c0.5158,0 0.9671,-0.1239 1.354,-0.3718c0.3868,-0.2479 0.6887,-0.5859 0.9056,-1.0141c0.2169,-0.4281 0.3253,-0.907 0.3253,-1.4366c0,-0.5408 -0.1084,-1.0253 -0.3253,-1.45351c-0.2169,-0.42817 -0.5188,-0.7662 -0.9056,-1.01409c-0.3869,-0.24788 -0.8382,-0.37183 -1.354,-0.37183c-0.5041,0 -0.9496,0.12395 -1.3364,0.37183c-0.3869,0.24789 -0.6888,0.58592 -0.9056,1.01409c-0.2169,0.42821 -0.3254,0.91271 -0.3254,1.45351c0,0.5296 0.1085,1.0085 0.3254,1.4366c0.2168,0.4282 0.5187,0.7662 0.9056,1.0141z" fill="#795b4d"></path><path d="M60.8827,15.5352c-0.218,0.1972 -0.4744,0.2958 -0.769,0.2958c-0.33,0 -0.5981,-0.0986 -0.8043,-0.2958c-0.2063,-0.1972 -0.3094,-0.4422 -0.3094,-0.7352v-9.76901c0,-0.29296 0.1031,-0.53803 0.3094,-0.73522c0.2062,-0.19718 0.4625,-0.29577 0.769,-0.29577h5.7453c0.3064,0 0.5627,0.09296 0.769,0.27887c0.2062,0.18592 0.3094,0.42536 0.3094,0.71831c0,0.24789 -0.1032,0.46761 -0.3094,0.65916l-0.1298,0.10343c-0.181,0.1226 -0.3941,0.18389 -0.6392,0.18389h-4.614v2.97465h3.8185c0.3064,0 0.5627,0.09296 0.769,0.27887c0.2062,0.18592 0.3093,0.42536 0.3093,0.71831c0,0.24791 -0.1031,0.46761 -0.3093,0.65911l-0.1298,0.1035c-0.181,0.1226 -0.3941,0.1839 -0.6392,0.1839h-3.8185v3.938c0,0.293 -0.109,0.538 -0.327,0.7352zM75.467,15.4085c-0.7248,0.3943 -1.535,0.5915 -2.4307,0.5915c-0.8957,0 -1.7059,-0.1972 -2.4307,-0.5915c-0.7248,-0.3944 -1.3023,-0.9437 -1.7325,-1.6479c-0.4301,-0.7043 -0.6452,-1.5183 -0.6452,-2.4423c0,-0.9239 0.2151,-1.73802 0.6452,-2.44224c0.4302,-0.70423 1.0077,-1.25634 1.7325,-1.65634c0.7248,-0.4 1.535,-0.6 2.4307,-0.6c0.8957,0 1.7059,0.2 2.4307,0.6c0.7248,0.4 1.3023,0.95211 1.7325,1.65634c0.4301,0.70422 0.6452,1.51834 0.6452,2.44224c0,0.924 -0.2151,1.738 -0.6452,2.4423c-0.4302,0.7042 -1.0077,1.2535 -1.7325,1.6479zM73.0363,14.1408c-0.495,0 -0.9458,-0.1183 -1.3524,-0.3549c-0.4065,-0.2366 -0.7306,-0.5662 -0.9722,-0.9887c-0.2416,-0.4226 -0.3624,-0.9155 -0.3624,-1.4789c0,-0.5746 0.1208,-1.0732 0.3624,-1.49576c0.2416,-0.42254 0.5657,-0.75212 0.9722,-0.98874c0.4066,-0.23662 0.8574,-0.35493 1.3524,-0.35493c0.495,0 0.9458,0.11831 1.3524,0.35493c0.4066,0.23662 0.7307,0.5662 0.9723,0.98874c0.2416,0.42256 0.3624,0.92116 0.3624,1.49576c0,0.5634 -0.1208,1.0563 -0.3624,1.4789c-0.2416,0.4225 -0.5657,0.7521 -0.9723,0.9887c-0.4066,0.2366 -0.8574,0.3549 -1.3524,0.3549zM81.4333,15.5352c-0.2003,0.1972 -0.4537,0.2958 -0.7601,0.2958c-0.3064,0 -0.5598,-0.0986 -0.7602,-0.2958c-0.2003,-0.1972 -0.3005,-0.4422 -0.3005,-0.7352v-6.98028c0,-0.29296 0.1002,-0.53803 0.3005,-0.73521c0.2004,-0.19719 0.4538,-0.29578 0.7602,-0.29578c0.3064,0 0.5598,0.09859 0.7601,0.29578l0.1082,0.12405c0.1283,0.17307 0.1924,0.37679 0.1924,0.61116v0.22817l0.0994,-0.15423c0.084,-0.11972 0.1775,-0.23169 0.2807,-0.33591c0.2062,-0.20845 0.439,-0.3831 0.6982,-0.52395c0.2593,-0.14084 0.5363,-0.24507 0.8309,-0.31267c0.2946,-0.06761 0.5893,-0.10141 0.8839,-0.10141c0.3536,0 0.6511,0.09577 0.8927,0.28732c0.2416,0.19155 0.3624,0.4169 0.3624,0.67606c0,0.37183 -0.1001,0.63944 -0.3005,0.80282c-0.2003,0.16338 -0.4184,0.24507 -0.6541,0.24507c-0.2239,0 -0.4272,-0.03944 -0.6099,-0.11831c-0.1826,-0.07888 -0.3918,-0.11831 -0.6275,-0.11831c-0.2122,0 -0.4273,0.04788 -0.6453,0.14366c-0.218,0.09577 -0.4184,0.24507 -0.601,0.44789c-0.1827,0.20281 -0.33,0.45352 -0.442,0.75211c-0.1119,0.29857 -0.1679,0.65067 -0.1679,1.05637v4.0056c0,0.293 -0.1002,0.538 -0.3006,0.7352zM91.1032,16c0.4478,0 0.8633,-0.0704 1.2463,-0.2113c0.383,-0.1408 0.716,-0.3126 0.9988,-0.5155c0.1414,-0.1014 0.2681,-0.2035 0.3801,-0.3063l0.1517,-0.15l0.0106,0.1531c0.024,0.1643 0.0841,0.3114 0.1803,0.4412l0.1082,0.124c0.2003,0.1972 0.4537,0.2958 0.7601,0.2958c0.3064,0 0.5598,-0.0986 0.7602,-0.2958c0.2003,-0.1972 0.3005,-0.4422 0.3005,-0.7352v-7.1493c0,-0.30422 -0.1002,-0.55211 -0.3005,-0.74366c-0.2004,-0.19155 -0.4538,-0.28732 -0.7602,-0.28732c-0.3064,0 -0.5598,0.09859 -0.7601,0.29577c-0.2004,0.19719 -0.3006,0.44226 -0.3006,0.73521v0.02536l-0.1237,-0.10933l-0.221,-0.16955c-0.3123,-0.22535 -0.6806,-0.41126 -1.1048,-0.55774c-0.4243,-0.14648 -0.8898,-0.21972 -1.3966,-0.21972c-0.7896,0 -1.5085,0.2 -2.1567,0.6c-0.6482,0.4 -1.1638,0.95211 -1.5468,1.65634c-0.3831,0.70422 -0.5746,1.51834 -0.5746,2.44224c0,0.9127 0.1915,1.7211 0.5746,2.4254c0.383,0.7042 0.9045,1.2563 1.5645,1.6563c0.6599,0.4 1.3965,0.6 2.2097,0.6zM90.0248,13.769c0.389,0.2479 0.8368,0.3718 1.3436,0.3718c0.5185,0 0.9723,-0.1239 1.3612,-0.3718c0.3889,-0.2479 0.6924,-0.5859 0.9104,-1.0141c0.218,-0.4281 0.327,-0.907 0.327,-1.4366c0,-0.5408 -0.109,-1.0253 -0.327,-1.45351c-0.218,-0.42817 -0.5215,-0.7662 -0.9104,-1.01409c-0.3889,-0.24788 -0.8427,-0.37183 -1.3612,-0.37183c-0.5068,0 -0.9546,0.12395 -1.3436,0.37183c-0.3889,0.24789 -0.6923,0.58592 -0.9104,1.01409c-0.218,0.42821 -0.327,0.91271 -0.327,1.45351c0,0.5296 0.109,1.0085 0.327,1.4366c0.2181,0.4282 0.5215,0.7662 0.9104,1.0141z" fill="#000000"></path></g></g></g></g></svg>